<mxfile host="app.diagrams.net" modified="2021-10-09T08:41:16.812Z" agent="5.0 (Windows NT 10.0; Win64; x64) AppleWebKit/537.36 (KHTML, like Gecko) Chrome/94.0.4606.71 Safari/537.36" etag="8eOPNIAARiop_OucAsqG" version="14.9.6" type="github">
  <diagram id="ujF06KvE0vqOyInE3G8T" name="Page-1">
    <mxGraphModel dx="780" dy="1152" grid="1" gridSize="10" guides="1" tooltips="1" connect="1" arrows="1" fold="1" page="1" pageScale="1" pageWidth="1169" pageHeight="827" math="0" shadow="0">
      <root>
        <mxCell id="0" />
        <mxCell id="1" parent="0" />
        <mxCell id="bi4UA1ywJZs6Y4yeNufV-1" value="S" style="ellipse;whiteSpace=wrap;html=1;aspect=fixed;" vertex="1" parent="1">
          <mxGeometry x="470" y="80" width="80" height="80" as="geometry" />
        </mxCell>
        <mxCell id="bi4UA1ywJZs6Y4yeNufV-2" value="A" style="ellipse;whiteSpace=wrap;html=1;aspect=fixed;" vertex="1" parent="1">
          <mxGeometry x="250" y="270" width="80" height="80" as="geometry" />
        </mxCell>
        <mxCell id="bi4UA1ywJZs6Y4yeNufV-3" value="B" style="ellipse;whiteSpace=wrap;html=1;aspect=fixed;" vertex="1" parent="1">
          <mxGeometry x="670" y="270" width="80" height="80" as="geometry" />
        </mxCell>
        <mxCell id="bi4UA1ywJZs6Y4yeNufV-4" value="C" style="ellipse;whiteSpace=wrap;html=1;aspect=fixed;" vertex="1" parent="1">
          <mxGeometry x="170" y="400" width="80" height="80" as="geometry" />
        </mxCell>
        <mxCell id="bi4UA1ywJZs6Y4yeNufV-5" value="D" style="ellipse;whiteSpace=wrap;html=1;aspect=fixed;" vertex="1" parent="1">
          <mxGeometry x="330" y="400" width="80" height="80" as="geometry" />
        </mxCell>
        <mxCell id="bi4UA1ywJZs6Y4yeNufV-7" value="E" style="ellipse;whiteSpace=wrap;html=1;aspect=fixed;" vertex="1" parent="1">
          <mxGeometry x="590" y="400" width="80" height="80" as="geometry" />
        </mxCell>
        <mxCell id="bi4UA1ywJZs6Y4yeNufV-8" value="F" style="ellipse;whiteSpace=wrap;html=1;aspect=fixed;" vertex="1" parent="1">
          <mxGeometry x="750" y="400" width="80" height="80" as="geometry" />
        </mxCell>
        <mxCell id="bi4UA1ywJZs6Y4yeNufV-9" value="H" style="ellipse;whiteSpace=wrap;html=1;aspect=fixed;" vertex="1" parent="1">
          <mxGeometry x="530" y="550" width="80" height="80" as="geometry" />
        </mxCell>
        <mxCell id="bi4UA1ywJZs6Y4yeNufV-10" value="G" style="ellipse;whiteSpace=wrap;html=1;aspect=fixed;" vertex="1" parent="1">
          <mxGeometry x="650" y="550" width="80" height="80" as="geometry" />
        </mxCell>
        <mxCell id="bi4UA1ywJZs6Y4yeNufV-11" value="" style="endArrow=classic;html=1;exitX=0;exitY=1;exitDx=0;exitDy=0;entryX=0.5;entryY=0;entryDx=0;entryDy=0;" edge="1" parent="1" source="bi4UA1ywJZs6Y4yeNufV-1" target="bi4UA1ywJZs6Y4yeNufV-2">
          <mxGeometry width="50" height="50" relative="1" as="geometry">
            <mxPoint x="510" y="610" as="sourcePoint" />
            <mxPoint x="560" y="560" as="targetPoint" />
          </mxGeometry>
        </mxCell>
        <mxCell id="bi4UA1ywJZs6Y4yeNufV-12" value="" style="endArrow=classic;html=1;exitX=1;exitY=1;exitDx=0;exitDy=0;entryX=0.5;entryY=0;entryDx=0;entryDy=0;" edge="1" parent="1" source="bi4UA1ywJZs6Y4yeNufV-1" target="bi4UA1ywJZs6Y4yeNufV-3">
          <mxGeometry width="50" height="50" relative="1" as="geometry">
            <mxPoint x="510" y="610" as="sourcePoint" />
            <mxPoint x="560" y="560" as="targetPoint" />
          </mxGeometry>
        </mxCell>
        <mxCell id="bi4UA1ywJZs6Y4yeNufV-14" value="" style="endArrow=classic;html=1;exitX=0.175;exitY=0.938;exitDx=0;exitDy=0;exitPerimeter=0;entryX=0.5;entryY=0;entryDx=0;entryDy=0;" edge="1" parent="1" source="bi4UA1ywJZs6Y4yeNufV-3" target="bi4UA1ywJZs6Y4yeNufV-7">
          <mxGeometry width="50" height="50" relative="1" as="geometry">
            <mxPoint x="510" y="610" as="sourcePoint" />
            <mxPoint x="560" y="560" as="targetPoint" />
          </mxGeometry>
        </mxCell>
        <mxCell id="bi4UA1ywJZs6Y4yeNufV-15" value="" style="endArrow=classic;html=1;exitX=1;exitY=1;exitDx=0;exitDy=0;entryX=0.5;entryY=0;entryDx=0;entryDy=0;" edge="1" parent="1" source="bi4UA1ywJZs6Y4yeNufV-3" target="bi4UA1ywJZs6Y4yeNufV-8">
          <mxGeometry width="50" height="50" relative="1" as="geometry">
            <mxPoint x="510" y="610" as="sourcePoint" />
            <mxPoint x="560" y="560" as="targetPoint" />
          </mxGeometry>
        </mxCell>
        <mxCell id="bi4UA1ywJZs6Y4yeNufV-16" value="" style="endArrow=classic;html=1;exitX=0.5;exitY=1;exitDx=0;exitDy=0;entryX=0.5;entryY=0;entryDx=0;entryDy=0;" edge="1" parent="1" source="bi4UA1ywJZs6Y4yeNufV-7" target="bi4UA1ywJZs6Y4yeNufV-9">
          <mxGeometry width="50" height="50" relative="1" as="geometry">
            <mxPoint x="510" y="610" as="sourcePoint" />
            <mxPoint x="560" y="560" as="targetPoint" />
          </mxGeometry>
        </mxCell>
        <mxCell id="bi4UA1ywJZs6Y4yeNufV-17" value="" style="endArrow=classic;html=1;entryX=0.5;entryY=0;entryDx=0;entryDy=0;" edge="1" parent="1" target="bi4UA1ywJZs6Y4yeNufV-10">
          <mxGeometry width="50" height="50" relative="1" as="geometry">
            <mxPoint x="630" y="480" as="sourcePoint" />
            <mxPoint x="560" y="560" as="targetPoint" />
          </mxGeometry>
        </mxCell>
        <mxCell id="bi4UA1ywJZs6Y4yeNufV-18" value="" style="endArrow=classic;html=1;exitX=0.5;exitY=1;exitDx=0;exitDy=0;" edge="1" parent="1" source="bi4UA1ywJZs6Y4yeNufV-2">
          <mxGeometry width="50" height="50" relative="1" as="geometry">
            <mxPoint x="510" y="610" as="sourcePoint" />
            <mxPoint x="360" y="400" as="targetPoint" />
          </mxGeometry>
        </mxCell>
        <mxCell id="bi4UA1ywJZs6Y4yeNufV-19" value="" style="endArrow=classic;html=1;exitX=0.5;exitY=1;exitDx=0;exitDy=0;entryX=0.5;entryY=0;entryDx=0;entryDy=0;" edge="1" parent="1" source="bi4UA1ywJZs6Y4yeNufV-2" target="bi4UA1ywJZs6Y4yeNufV-4">
          <mxGeometry width="50" height="50" relative="1" as="geometry">
            <mxPoint x="510" y="610" as="sourcePoint" />
            <mxPoint x="560" y="560" as="targetPoint" />
          </mxGeometry>
        </mxCell>
      </root>
    </mxGraphModel>
  </diagram>
</mxfile>
